<svg width="130" height="14" viewBox="0 0 130 14" fill="none" xmlns="http://www.w3.org/2000/svg">
<path d="M1.43164 11H-0.0449219V2.46875H1.43164V11ZM17.2285 7.19141H13.7246V9.81641H17.8203V11H12.2422V2.46875H17.7793V3.66406H13.7246V6.01953H17.2285V7.19141ZM26.8027 9.01367H23.498L22.8066 11H21.2656L24.4883 2.46875H25.8184L29.0469 11H27.5L26.8027 9.01367ZM23.9141 7.81836H26.3867L25.1504 4.2793L23.9141 7.81836ZM38.4805 3.66406H35.8203V11H34.3496V3.66406H31.7129V2.46875H38.4805V3.66406ZM54.752 8.22266C54.666 9.13281 54.3301 9.84375 53.7441 10.3555C53.1582 10.8633 52.3789 11.1172 51.4062 11.1172C50.7266 11.1172 50.127 10.957 49.6074 10.6367C49.0918 10.3125 48.6934 9.85352 48.4121 9.25977C48.1309 8.66602 47.9844 7.97656 47.9727 7.19141V6.39453C47.9727 5.58984 48.1152 4.88086 48.4004 4.26758C48.6855 3.6543 49.0938 3.18164 49.625 2.84961C50.1602 2.51758 50.7773 2.35156 51.4766 2.35156C52.418 2.35156 53.1758 2.60742 53.75 3.11914C54.3242 3.63086 54.6582 4.35352 54.752 5.28711H53.2754C53.2051 4.67383 53.0254 4.23242 52.7363 3.96289C52.4512 3.68945 52.0312 3.55273 51.4766 3.55273C50.832 3.55273 50.3359 3.78906 49.9883 4.26172C49.6445 4.73047 49.4688 5.41992 49.4609 6.33008V7.08594C49.4609 8.00781 49.625 8.71094 49.9531 9.19531C50.2852 9.67969 50.7695 9.92188 51.4062 9.92188C51.9883 9.92188 52.4258 9.79102 52.7188 9.5293C53.0117 9.26758 53.1973 8.83203 53.2754 8.22266H54.752ZM63.8574 9.01367H60.5527L59.8613 11H58.3203L61.543 2.46875H62.873L66.1016 11H64.5547L63.8574 9.01367ZM60.9688 7.81836H63.4414L62.2051 4.2793L60.9688 7.81836ZM76.8418 11H75.3594L71.5566 4.94727V11H70.0742V2.46875H71.5566L75.3711 8.54492V2.46875H76.8418V11ZM88.1328 9.89258C87.8242 10.2949 87.3965 10.5996 86.8496 10.8066C86.3027 11.0137 85.6816 11.1172 84.9863 11.1172C84.2715 11.1172 83.6387 10.9551 83.0879 10.6309C82.5371 10.3066 82.1113 9.84375 81.8105 9.24219C81.5137 8.63672 81.3594 7.93164 81.3477 7.12695V6.45898C81.3477 5.16992 81.6562 4.16406 82.2734 3.44141C82.8906 2.71484 83.752 2.35156 84.8574 2.35156C85.8066 2.35156 86.5605 2.58594 87.1191 3.05469C87.6777 3.52344 88.0137 4.19922 88.127 5.08203H86.6738C86.5098 4.05469 85.9141 3.54102 84.8867 3.54102C84.2227 3.54102 83.7168 3.78125 83.3691 4.26172C83.0254 4.73828 82.8477 5.43945 82.8359 6.36523V7.02148C82.8359 7.94336 83.0293 8.66016 83.416 9.17188C83.8066 9.67969 84.3477 9.93359 85.0391 9.93359C85.7969 9.93359 86.3359 9.76172 86.6562 9.41797V7.74805H84.8984V6.62305H88.1328V9.89258ZM99.3008 9.89258C98.9922 10.2949 98.5645 10.5996 98.0176 10.8066C97.4707 11.0137 96.8496 11.1172 96.1543 11.1172C95.4395 11.1172 94.8066 10.9551 94.2559 10.6309C93.7051 10.3066 93.2793 9.84375 92.9785 9.24219C92.6816 8.63672 92.5273 7.93164 92.5156 7.12695V6.45898C92.5156 5.16992 92.8242 4.16406 93.4414 3.44141C94.0586 2.71484 94.9199 2.35156 96.0254 2.35156C96.9746 2.35156 97.7285 2.58594 98.2871 3.05469C98.8457 3.52344 99.1816 4.19922 99.2949 5.08203H97.8418C97.6777 4.05469 97.082 3.54102 96.0547 3.54102C95.3906 3.54102 94.8848 3.78125 94.5371 4.26172C94.1934 4.73828 94.0156 5.43945 94.0039 6.36523V7.02148C94.0039 7.94336 94.1973 8.66016 94.584 9.17188C94.9746 9.67969 95.5156 9.93359 96.207 9.93359C96.9648 9.93359 97.5039 9.76172 97.8242 9.41797V7.74805H96.0664V6.62305H99.3008V9.89258ZM110.17 2.46875V8.16992C110.17 9.07617 109.879 9.79492 109.297 10.3262C108.719 10.8535 107.947 11.1172 106.982 11.1172C106.006 11.1172 105.23 10.8574 104.656 10.3379C104.082 9.81445 103.795 9.08984 103.795 8.16406V2.46875H105.271V8.17578C105.271 8.74609 105.416 9.18164 105.705 9.48242C105.994 9.7832 106.42 9.93359 106.982 9.93359C108.123 9.93359 108.693 9.33203 108.693 8.12891V2.46875H110.17Z" fill="#FE346E"/>
<circle cx="119" cy="3.5" r="1.5" fill="#FE346E"/>
<circle cx="127" cy="3.5" r="1.5" fill="#FE346E"/>
<path d="M117 8.5C118 9.16667 120.6 10.5 123 10.5M123 10.5C124.333 11.6667 127.3 13.8 128.5 13C129.7 12.2 127.667 10.4525 126.5 9.67869M123 10.5C124.268 10.5 125.498 10.128 126.5 9.67869M128.5 8.5C128.107 8.81452 127.395 9.27742 126.5 9.67869" stroke="#FE346E"/>
</svg>
